<svg width="123" height="58" viewBox="0 0 123 58" fill="none" xmlns="http://www.w3.org/2000/svg">
<rect width="121" height="54" transform="translate(2 2)" fill="white"/>
<path d="M26.92 13.6426V8.74862M26.92 8.74862L28.8247 7.241C30.4101 5.98604 30.2782 3.53414 28.5703 2.45264C27.5724 1.82069 26.2913 1.85257 25.327 2.53505C23.7874 3.6247 23.666 5.86986 25.0791 7.12001L26.92 8.74862ZM23.9238 55.5932L34.4868 46.3259C34.7834 46.0657 35.1641 45.9223 35.5582 45.9223H36.7737C40.9398 45.9223 44.9421 44.186 47.8095 41.1558C53.0572 35.61 53.4291 26.9814 48.6264 21.0441L47.8573 20.0933C44.9738 16.5287 40.6404 14.4583 36.0628 14.4583H17.9257C13.2328 14.4583 8.80349 16.6337 5.92697 20.3515L5.17595 21.3221C0.657099 27.1624 0.999411 35.4405 5.95381 40.9142C8.83221 44.0944 12.9292 45.9223 17.2124 45.9223H19.5982C20.4968 45.9223 21.2253 46.6527 21.2253 47.5536V54.3655C21.2253 55.7671 22.8718 56.5161 23.9238 55.5932Z" stroke="black" stroke-width="4"/>
<circle cx="3" cy="3" r="3" transform="matrix(1 0 0 -1 24 8)" fill="#681F9F"/>
<rect x="17" y="23" width="5" height="12" rx="2.5" fill="black"/>
<rect x="32" y="23" width="5" height="12" rx="2.5" fill="black"/>
</svg>
