<?xml version="1.0" standalone="no"?>
<!DOCTYPE svg PUBLIC "-//W3C//DTD SVG 20010904//EN"
 "http://www.w3.org/TR/2001/REC-SVG-20010904/DTD/svg10.dtd">
<svg version="1.0" xmlns="http://www.w3.org/2000/svg"
 width="96.000000pt" height="96.000000pt" viewBox="0 0 96.000000 96.000000"
 preserveAspectRatio="xMidYMid meet">

<g transform="translate(0.000000,96.000000) scale(0.100000,-0.100000)"
fill="#000000" stroke="none">
<path d="M387 860 c-109 -28 -211 -113 -261 -220 -28 -58 -31 -75 -31 -160 0
-85 3 -102 31 -160 39 -83 111 -155 194 -194 58 -28 75 -31 160 -31 88 0 101
3 162 33 85 42 148 105 190 190 30 61 33 74 33 162 0 85 -3 102 -31 160 -63
134 -188 219 -332 226 -42 2 -94 -1 -115 -6z m225 -77 c65 -30 133 -95 165
-162 37 -75 40 -200 6 -273 -30 -66 -96 -133 -162 -165 -48 -24 -68 -28 -141
-28 -73 0 -93 4 -141 28 -223 109 -253 402 -57 560 85 68 227 85 330 40z"/>
<path d="M380 595 l-95 -95 23 -22 22 -22 60 59 60 59 0 -152 0 -152 30 0 30
0 0 152 0 152 60 -59 60 -59 22 22 23 22 -95 95 c-52 52 -97 95 -100 95 -3 0
-48 -43 -100 -95z"/>
</g>
</svg>
