<svg width="50" height="50" viewBox="0 0 50 50" fill="none" xmlns="http://www.w3.org/2000/svg">
<path d="M25.0033 44.7917C22.2658 44.7917 19.6927 44.2723 17.284 43.2334C14.8754 42.1945 12.7802 40.7846 10.9986 39.0037C9.21703 37.2228 7.80644 35.1285 6.76686 32.7209C5.72763 30.3132 5.20801 27.7408 5.20801 25.0037C5.20801 22.2662 5.72745 19.6931 6.76634 17.2844C7.80523 14.8757 9.21513 12.7806 10.996 10.999C12.7769 9.2174 14.8712 7.80681 17.2788 6.76723C19.6865 5.72799 22.2589 5.20837 24.996 5.20837C27.7335 5.20837 30.3066 5.72782 32.7153 6.76671C35.124 7.80559 37.2191 9.21549 39.0007 10.9964C40.7823 12.7773 42.1929 14.8716 43.2325 17.2792C44.2717 19.6868 44.7913 22.2592 44.7913 24.9964C44.7913 27.7339 44.2719 30.307 43.233 32.7157C42.1941 35.1243 40.7842 37.2195 39.0033 39.0011C37.2224 40.7827 35.1281 42.1933 32.7205 43.2328C30.3129 44.2721 27.7405 44.7917 25.0033 44.7917ZM24.9997 41.6667C29.6524 41.6667 33.5934 40.0521 36.8226 36.823C40.0517 33.5938 41.6663 29.6528 41.6663 25C41.6663 20.3473 40.0517 16.4063 36.8226 13.1771C33.5934 9.94796 29.6524 8.33337 24.9997 8.33337C20.3469 8.33337 16.4059 9.94796 13.1768 13.1771C9.94759 16.4063 8.33301 20.3473 8.33301 25C8.33301 29.6528 9.94759 33.5938 13.1768 36.823C16.4059 40.0521 20.3469 41.6667 24.9997 41.6667ZM25.0044 36.4584C21.8228 36.4584 19.1169 35.3448 16.8867 33.1177C14.6564 30.8907 13.5413 28.1863 13.5413 25.0047C13.5413 21.8231 14.6549 19.1172 16.882 16.887C19.109 14.6568 21.8134 13.5417 24.995 13.5417C28.1766 13.5417 30.8825 14.6552 33.1127 16.8823C35.3429 19.1094 36.458 21.8138 36.458 24.9953C36.458 28.1769 35.3445 30.8828 33.1174 33.1131C30.8903 35.3433 28.186 36.4584 25.0044 36.4584ZM24.9997 33.3334C27.2913 33.3334 29.2531 32.5174 30.8851 30.8855C32.517 29.2535 33.333 27.2917 33.333 25C33.333 22.7084 32.517 20.7466 30.8851 19.1146C29.2531 17.4827 27.2913 16.6667 24.9997 16.6667C22.708 16.6667 20.7462 17.4827 19.1143 19.1146C17.4823 20.7466 16.6663 22.7084 16.6663 25C16.6663 27.2917 17.4823 29.2535 19.1143 30.8855C20.7462 32.5174 22.708 33.3334 24.9997 33.3334ZM24.9997 28.125C24.1476 28.125 23.4137 27.8172 22.7981 27.2016C22.1825 26.586 21.8747 25.8521 21.8747 25C21.8747 24.148 22.1825 23.4141 22.7981 22.7985C23.4137 22.1828 24.1476 21.875 24.9997 21.875C25.8518 21.875 26.5856 22.1828 27.2012 22.7985C27.8169 23.4141 28.1247 24.148 28.1247 25C28.1247 25.8521 27.8169 26.586 27.2012 27.2016C26.5856 27.8172 25.8518 28.125 24.9997 28.125Z" fill="#2E2F5F"/>
</svg>
