<svg width="50" height="50" viewBox="0 0 50 50" fill="none" xmlns="http://www.w3.org/2000/svg">
<path d="M25.0046 32.4521C27.3653 32.4521 29.3704 31.6259 31.0197 29.9734C32.669 28.321 33.4936 26.3144 33.4936 23.9536C33.4936 21.5929 32.6674 19.5878 31.015 17.9385C29.3625 16.2892 27.3559 15.4646 24.9952 15.4646C22.6344 15.4646 20.6294 16.2908 18.9801 17.9432C17.3308 19.5957 16.5061 21.6023 16.5061 23.963C16.5061 26.3238 17.3323 28.3288 18.9848 29.9781C20.6372 31.6274 22.6438 32.4521 25.0046 32.4521ZM24.9999 29.5833C23.4374 29.5833 22.1092 29.0365 21.0155 27.9427C19.9217 26.849 19.3749 25.5208 19.3749 23.9583C19.3749 22.3958 19.9217 21.0677 21.0155 19.974C22.1092 18.8802 23.4374 18.3333 24.9999 18.3333C26.5624 18.3333 27.8905 18.8802 28.9842 19.974C30.078 21.0677 30.6249 22.3958 30.6249 23.9583C30.6249 25.5208 30.078 26.849 28.9842 27.9427C27.8905 29.0365 26.5624 29.5833 24.9999 29.5833ZM25.0025 38.5417C20.2118 38.5417 15.8467 37.2201 11.9072 34.5771C7.96758 31.9344 5.06688 28.3948 3.20508 23.9583C5.06688 19.5219 7.96654 15.9823 11.904 13.3396C15.8419 10.6965 20.2063 9.375 24.9973 9.375C29.7879 9.375 34.153 10.6965 38.0926 13.3396C42.0322 15.9823 44.9329 19.5219 46.7947 23.9583C44.9329 28.3948 42.0332 31.9344 38.0957 34.5771C34.1579 37.2201 29.7934 38.5417 25.0025 38.5417ZM24.9999 35.4167C28.9235 35.4167 32.5259 34.3837 35.8072 32.3177C39.0884 30.2517 41.5971 27.4653 43.3332 23.9583C41.5971 20.4514 39.0884 17.6649 35.8072 15.599C32.5259 13.533 28.9235 12.5 24.9999 12.5C21.0763 12.5 17.4738 13.533 14.1926 15.599C10.9113 17.6649 8.40265 20.4514 6.66654 23.9583C8.40265 27.4653 10.9113 30.2517 14.1926 32.3177C17.4738 34.3837 21.0763 35.4167 24.9999 35.4167Z" fill="#2E2F5F"/>
</svg>
